<svg xmlns="http://www.w3.org/2000/svg" xmlns:xlink="http://www.w3.org/1999/xlink"><defs><style>
    .sprite-symbol-usage {display: none;}
    .sprite-symbol-usage:target {display: inline;}
  </style><symbol viewBox="0 0 24 24" id="delete"><path d="M8.76 7.758a1 1 0 0 0-.697 1.717l2.535 2.537-2.536 2.535a1 1 0 1 0 1.415 1.414l2.535-2.535 2.535 2.537a1 1 0 1 0 1.414-1.414l-2.535-2.537 2.537-2.537a1 1 0 0 0-.729-1.717 1 1 0 0 0-.685.303l-2.537 2.537L9.477 8.06a1 1 0 0 0-.717-.303z" style="line-height:normal;text-indent:0;text-align:start;text-decoration-line:none;text-decoration-style:solid;text-decoration-color:#000;text-transform:none;block-progression:tb;isolation:auto;mix-blend-mode:normal" color="#000" font-weight="400" font-family="sans-serif" white-space="normal" overflow="visible" stroke="none" /></symbol><symbol viewBox="0 0 24 24" id="delete-circle"><path d="M12.012 2C6.494 2 2 6.494 2 12.012c0 5.517 4.494 10.011 10.012 10.011 5.517 0 10.011-4.494 10.011-10.011C22.023 6.494 17.53 2 12.012 2zm0 2a7.996 7.996 0 0 1 8.011 8.012 7.996 7.996 0 0 1-8.011 8.011A7.996 7.996 0 0 1 4 12.012 7.996 7.996 0 0 1 12.012 4z" style="line-height:normal;text-indent:0;text-align:start;text-decoration-line:none;text-decoration-style:solid;text-decoration-color:#000;text-transform:none;block-progression:tb;isolation:auto;mix-blend-mode:normal" color="#000" font-weight="400" font-family="sans-serif" white-space="normal" overflow="visible" /><path d="M8.76 7.758a1 1 0 0 0-.697 1.717l2.535 2.537-2.536 2.535a1 1 0 1 0 1.415 1.414l2.535-2.535 2.535 2.537a1 1 0 1 0 1.414-1.414l-2.535-2.537 2.537-2.537a1 1 0 0 0-.729-1.717 1 1 0 0 0-.685.303l-2.537 2.537L9.477 8.06a1 1 0 0 0-.717-.303z" style="line-height:normal;text-indent:0;text-align:start;text-decoration-line:none;text-decoration-style:solid;text-decoration-color:#000;text-transform:none;block-progression:tb;isolation:auto;mix-blend-mode:normal" color="#000" font-weight="400" font-family="sans-serif" white-space="normal" overflow="visible" stroke="none" /></symbol><symbol viewBox="0 0 24.895 24.895" id="sub-account-active"><path fill="#00E28B" d="M12.448 4.342c4.47 0 8.106 3.636 8.106 8.105s-3.637 8.104-8.106 8.104c-4.469 0-8.104-3.636-8.104-8.104-.001-4.469 3.635-8.105 8.104-8.105m0-2.894c-6.074 0-11 4.925-11 11 0 6.074 4.926 11 11 11 6.075 0 11-4.926 11-11 0-6.076-4.925-11-11-11z" /><path fill="#00E28B" d="M2.054 15.104c-.168-4.165 2.083-6.291 4.956-6.291 1.75 0 3.083.541 5.875 1.874 2.124 1 3.665 1.75 5.207 1.75 1.499 0 2.208-1.207 2.249-3.499h2.5c.208 4.666-2.209 6.291-4.789 6.291-1.668 0-3.167-.501-6.042-1.834-1.957-.958-3.499-1.833-5-1.833-1.499 0-2.415 1.041-2.498 3.541l-2.458.001z" /></symbol><symbol viewBox="0 0 24.895 24.895" id="sub-account-pending"><path fill="#F5E462" d="M12.447 4.342c4.469 0 8.106 3.636 8.106 8.105 0 4.47-3.637 8.105-8.106 8.105s-8.105-3.636-8.105-8.105 3.636-8.105 8.105-8.105m0-2.895c-6.075 0-11 4.925-11 11s4.925 11 11 11 11-4.925 11-11-4.925-11-11-11z" /><path fill="#F5E462" d="M12.447 10.752c.935 0 1.696.761 1.696 1.695s-.761 1.695-1.696 1.695c-.935 0-1.695-.761-1.695-1.695s.761-1.695 1.695-1.695m0-2.895a4.59 4.59 0 1 0 0 9.18 4.59 4.59 0 0 0 0-9.18z" /></symbol></defs><use id="delete-usage" xlink:href="#delete" class="sprite-symbol-usage" /><use id="delete-circle-usage" xlink:href="#delete-circle" class="sprite-symbol-usage" /><use id="sub-account-active-usage" xlink:href="#sub-account-active" class="sprite-symbol-usage" /><use id="sub-account-pending-usage" xlink:href="#sub-account-pending" class="sprite-symbol-usage" /></svg>